<svg x="713.549" y="293.846" width="474.695" height="546.48" viewBox="713.549 293.846 474.695 546.48" xmlns="http://www.w3.org/2000/svg"><linearGradient x1="924.921" y1="439.911" x2="1119.58" y2="393.263" gradientUnits="userSpaceOnUse" id="a"><stop offset=".138" style="stop-color:#2a0808;stop-opacity:1"/><stop offset=".266" style="stop-color:#000;stop-opacity:1"/><stop offset=".339" style="stop-color:#2a0808;stop-opacity:1"/><stop offset="1" style="stop-color:#421e15;stop-opacity:1"/></linearGradient><path style="fill:url(#a);fill-opacity:1;fill-rule:evenodd;opacity:1;stroke:none" d="M980.311 512.663c33.789 20.256 104.349 40.127 123.749 12.825l.87 1.685c.4-1.908 2.9-3.835 3.48-5.769.14-.305 1.27-.614 1.4-.927 1.11-2.707 2.12-15.678 3.02-18.856 3.81-9.819 5.19-9.317 5.91-16.941.34-3.559-2.89-6.233-2.59-9.596.3-3.387 4.74-4.83 5.18-8.209.6-4.659-2.98-9.379-4.55-14.05.03-3.217.02-6.371-.04-9.43.91-4.197 2.35-5.562 1.63-10.586-.13-.899-1.59-5.964-2.59-7.463-.12-1.173-.26-8.375-.41-9.602 3.11-10.384-11.06-10.473-3.57-24.39 1.96-3.644 2.56-8.156 1.57-10.519-3.72-8.974-7.15-15.159-11.51-22.983-4.01-7.193-1.8-17.253-8.09-23.306-2.64-2.538-7.28-4.037-9.22-7.137-1.88-3.032-3.3-7.84-6.18-10.258-5.75-4.822-12.71-5.509-19.37-9.843-9.68-6.303-15.63-2.124-25.61-7.339-11.85-6.193-38.171-7.512-47.761-2.735-6.956 1.105-13.258 2.785-17.757 5.106-7.063 3.644-14.082 9.238-20.202 16.893-3.187 2.082-6.208 4.324-8.187 6.849-2.454 3.132-2.88 8.953-4.249 12.679-.985 2.683-4.571 8.566-5.41 11.296-2.164 7.047-.963 12.003-.737 17.962a130.129 130.129 0 0 0-.614 8.453c-.881 3.806-3.037 7.823-4.095 11.47-.646 2.224-2.252 10.079-.453 14.56.678 1.689 3.795 10.056 4.825 11.45 1.228 1.663 2.127 4.903 2.615 7.434.084.499.169.997.255 1.495l.031.219c1.193 8.687 1.019 18.077 3.716 26.563 2.387 7.513 6.134 14.492 8.9 22.064 1.704 4.667.687 11.502 3.347 15.692.924 1.455 8.254 6.26 9.423 7.17 3.362 2.618 6.947 9.81 10.829 14.033l2.462-2.916a54.405 54.405 0 0 0 3.553 2.78c1.214 2.182 2.756 4.006 4.822 6.233l1.608-2.056z"/><path style="fill:none;opacity:1;stroke:#532b21;stroke-linecap:round;stroke-linejoin:round;stroke-miterlimit:10;stroke-opacity:1;stroke-width:1" d="M980.311 512.663c33.789 20.256 104.349 40.127 123.749 12.825l.87 1.685c.4-1.908 2.9-3.835 3.48-5.769.14-.305 1.27-.614 1.4-.927 1.11-2.707 2.12-15.678 3.02-18.856 3.81-9.819 5.19-9.317 5.91-16.941.34-3.559-2.89-6.233-2.59-9.596.3-3.387 4.74-4.83 5.18-8.209.6-4.659-2.98-9.379-4.55-14.05.03-3.217.02-6.371-.04-9.43.91-4.197 2.35-5.562 1.63-10.586-.13-.899-1.59-5.964-2.59-7.463-.12-1.173-.26-8.375-.41-9.602 3.11-10.384-11.06-10.473-3.57-24.39 1.96-3.644 2.56-8.156 1.57-10.519-3.72-8.974-7.15-15.159-11.51-22.983-4.01-7.193-1.8-17.253-8.09-23.306-2.64-2.538-7.28-4.037-9.22-7.137-1.88-3.032-3.3-7.84-6.18-10.258-5.75-4.822-12.71-5.509-19.37-9.843-9.68-6.303-15.63-2.124-25.61-7.339-11.85-6.193-38.171-7.512-47.761-2.735-6.956 1.105-13.258 2.785-17.757 5.106-7.063 3.644-14.082 9.238-20.202 16.893-3.187 2.082-6.208 4.324-8.187 6.849-2.454 3.132-2.88 8.953-4.249 12.679-.985 2.683-4.571 8.566-5.41 11.296-2.164 7.047-.963 12.003-.737 17.962a130.129 130.129 0 0 0-.614 8.453c-.881 3.806-3.037 7.823-4.095 11.47-.646 2.224-2.252 10.079-.453 14.56.678 1.689 3.795 10.056 4.825 11.45 1.228 1.663 2.127 4.903 2.615 7.434.084.499.169.997.255 1.495l.031.219c1.193 8.687 1.019 18.077 3.716 26.563 2.387 7.513 6.134 14.492 8.9 22.064 1.704 4.667.687 11.502 3.347 15.692.924 1.455 8.254 6.26 9.423 7.17 3.362 2.618 6.947 9.81 10.829 14.033l2.462-2.916a54.405 54.405 0 0 0 3.553 2.78c1.214 2.182 2.756 4.006 4.822 6.233l1.608-2.056z"/><path style="fill:#532b21;fill-opacity:1;fill-rule:nonzero;opacity:1;stroke:none" d="M1012.68 312.776c0 .168-.01.334-.01.5-.12 4.38.21 8.261 2.42 11.249a8.571 8.571 0 0 0 4.72 3.154c1.98.518 4.22.408 6.52-.361.22-.073.44-.152.66-.235l-4.11-3.087c-.44 5.734 1.38 10.859 4.96 13.914 1.79 1.513 4.08 2.442 6.51 2.431 2.44 0 4.9-.916 7.14-2.624.31-.232.58-.507.79-.826.21-.338.4-.648.5-1.322.01-.351.12-.854-.42-1.799-.28-.454-.88-.964-1.56-1.129a2.686 2.686 0 0 0-1.61.067c-.73.293-.94.58-1.13.777-.18.204-.28.363-.36.509-.31.56-.42 1.001-.54 1.63-.11.619-.19 1.386-.22 2.404-.14 4.196.79 7.586 2.66 10.004 1.87 2.428 4.64 3.659 7.47 3.789.96.027 2.27.191 3.72-.21.72-.205 1.5-.608 2.1-1.28.6-.667.98-1.54 1.13-2.509.16-.956-.47-1.852-1.33-1.994-.86-.186-1.77.414-1.95 1.227-.81 3.697-.51 6.8.55 9.324 1.06 2.528 2.82 4.443 4.82 6.012 4 3.13 9.01 4.998 12.39 7.485.08.06.19-.072.11-.141-3.11-2.867-7.98-5.372-11.34-8.67-1.69-1.645-2.98-3.457-3.61-5.55-.62-2.098-.64-4.509.34-7.6-1.09-.256-2.19-.511-3.28-.767-.14.492-.3.667-.41.745-.11.073-.2.111-.44.154-.46.095-1.42-.02-2.45-.171-1.91-.292-3.23-1.107-4.16-2.512-.92-1.415-1.5-3.646-1.17-7.024.08-.831.17-1.369.25-1.657.06-.278.14-.344-.02-.033-.04.083-.11.195-.26.367-.17.165-.35.433-1.06.719a2.67 2.67 0 0 1-1.59.065c-.66-.164-1.26-.67-1.53-1.116-.54-.932-.42-1.411-.41-1.731.09-.614.24-.834.38-1.072.15-.219.31-.382.49-.511-1.59 1.057-2.88 1.351-3.9 1.301-1.04-.062-1.91-.443-2.77-1.208-1.7-1.499-3.07-4.794-2.72-8.991a3.084 3.084 0 0 0-1.2-2.669 3.055 3.055 0 0 0-2.91-.418c-.16.059-.31.113-.46.164-1.58.544-2.71.766-3.63.775-.93.002-1.73-.176-2.65-.755-1.81-1.114-3.81-4.139-4.87-8.357-.04-.158-.07-.317-.11-.479-.06-.236-.43-.2-.44.042zM1079.94 347.461l-.24.396c-2.05 3.483-3.43 6.951-2.72 10.619.67 3.651 3.82 7.048 8.73 8.424.32.088.63.169.96.246-.59-1.584-1.18-3.168-1.76-4.752-3.28 4.504-3.92 9.971-1.89 14.351 1.99 4.416 6.78 7.405 12.64 7.177.37-.005.74-.065 1.12-.202.38-.162.76-.301 1.29-.917.22-.328.67-.863.56-2.052-.06-.572-.4-1.215-.83-1.596-.42-.393-.86-.56-1.18-.642-.66-.146-1-.062-1.27-.013-.26.06-.45.134-.61.208-.61.3-.97.627-1.42 1.087-.43.46-.89 1.052-1.43 1.865-2.2 3.349-2.97 6.782-2.27 9.812.68 3.032 2.7 5.408 5.27 7.044.94.578 2.1 1.409 3.56 1.862.74.22 1.59.335 2.48.147.88-.181 1.73-.687 2.39-1.414.65-.714.61-1.796-.03-2.383-.6-.619-1.69-.624-2.28-.048-2.61 2.516-3.87 5.261-4.05 7.929-.19 2.67.62 5.184 1.8 7.553 2.39 4.733 6.39 9.045 8.49 12.928.04.089.2.015.16-.078-1.68-4.118-5.23-8.965-6.97-13.59-.87-2.31-1.28-4.526-.92-6.515.36-1.991 1.39-3.836 3.72-5.718-.77-.811-1.54-1.621-2.32-2.432-.32.27-.48.292-.63.302-.15.003-.35-.029-.67-.16-.63-.249-1.54-.941-2.46-1.65-1.83-1.413-2.83-3.018-3.05-4.653-.22-1.638.21-3.557 2.02-5.999.45-.6.77-.95.95-1.109.04-.039.08-.067.1-.083.02-.016.02-.01.03-.016-.02.011-.07.065-.26.156-.1.045-.23.1-.45.152-.23.039-.54.122-1.17-.018-.31-.08-.74-.242-1.16-.63-.42-.375-.75-1.011-.82-1.574-.1-1.173.34-1.688.55-1.993.49-.572.79-.659 1.06-.779.27-.097.49-.126.67-.13-4.16-.183-6.23-1.981-7.24-4.236-.96-2.29-.72-5.379 1.44-8.365.61-.844.74-1.933.39-2.851a3.031 3.031 0 0 0-2.15-1.901c-.25-.059-.49-.122-.72-.185-3.68-1.014-5.37-1.94-6.62-3.853-1.21-1.896-1.58-5.233-.52-9.107.04-.145.08-.29.13-.437.07-.232-.28-.385-.4-.177zM1069.07 403.114c-.1.092-.19.184-.29.277-2.49 2.435-4.39 5.219-4.47 8.764-.09 3.499 1.87 7.454 5.99 10.367.32.222.65.438.99.653-.06-1.672-.13-3.344-.19-5.016-4.17 3.061-5.79 8.116-4.69 12.632 1.07 4.546 4.7 8.568 10.14 10.404.33.117.68.195 1.08.205.42-.019.84.019 1.65-.47.21-.139.45-.332.69-.661.24-.323.48-.82.51-1.416a2.683 2.683 0 0 0-1.22-2.408c-.49-.304-.82-.36-1.08-.408a3.007 3.007 0 0 0-.65-.027c-.69.059-1.16.253-1.71.532-.54.284-1.12.677-1.79 1.237-2.82 2.296-4.28 5.346-4.16 8.322.1 2.974 1.52 5.655 3.57 7.942.77.84 1.69 1.95 2.92 2.807.61.423 1.33.797 2.19.938.85.148 1.82-.004 2.65-.463.84-.466 1.15-1.493.74-2.25-.36-.778-1.37-1.139-2.13-.798-2.98 1.35-4.8 3.477-5.47 5.857-.69 2.376-.38 4.872.3 7.375 1.37 4.999 4.33 10.178 5.59 14.331.03.096.2.056.18-.044-.79-4.298-3.16-9.909-3.91-14.691-.38-2.387-.33-4.528.34-6.118.68-1.586 1.83-2.753 4.24-3.608.78-.278 1.26-1.274.95-2.098-.26-.839-1.25-1.315-2.34-.95-.26.089-.34.053-.48.011-.14-.05-.37-.173-.67-.428-.59-.498-1.32-1.467-2.03-2.421-1.48-1.962-2.13-3.88-2.03-5.384.13-1.503.76-2.81 2.73-4.281.5-.359.82-.532.96-.587a.47.47 0 0 1 .07-.022c-.01.001 0 .004-.02.013-.05.017-.15.054-.38.071-.11.007-.26.011-.48-.022-.22-.041-.52-.086-.99-.377a2.612 2.612 0 0 1-.78-.784 2.677 2.677 0 0 1-.41-1.581c.03-.588.26-1.078.5-1.393.23-.322.47-.507.66-.64.78-.461 1.12-.403 1.42-.425.29.007.49.06.64.111-3.87-1.61-5.73-4.242-6.22-6.685-.46-2.472.3-4.741 2.55-6.466.84-.638 1.28-1.615 1.23-2.577a3.058 3.058 0 0 0-1.42-2.439c-.27-.172-.53-.345-.78-.514-3.27-2.185-4.94-3.738-5.75-5.834-.8-2.05-.51-4.946 1.2-7.951.07-.113.13-.225.2-.337.13-.208-.17-.442-.34-.275zM1101.25 461.262c-.12.088-.24.177-.37.265-3.21 2.338-5.85 4.782-6.74 8.187-.44 1.68-.34 3.588.42 5.386s2.12 3.461 4.01 4.795c.2.14.41.278.62.414v-5.115c-4.48 2.907-7.18 7.284-7.25 11.784-.03 2.237.67 4.494 2.1 6.329 1.43 1.843 3.54 3.218 6.11 3.984.36.115.73.171 1.12.158.4-.029.77-.055 1.4-.403.29-.212.81-.456 1.2-1.512.18-.517.18-1.289-.09-1.881a2.712 2.712 0 0 0-.98-1.167c-.63-.393-.99-.404-1.26-.446a3.035 3.035 0 0 0-.63.007c-.63.087-1.04.26-1.59.525-.54.268-1.15.643-1.91 1.19-3.15 2.256-5.11 4.922-5.75 7.761-.65 2.838.13 5.625 1.7 7.841.56.752 1.22 1.838 2.36 2.715.57.432 1.32.804 2.18.892.86.095 1.76-.109 2.58-.542.86-.452 1.2-1.49.79-2.264-.36-.792-1.39-1.163-2.14-.82-3.18 1.447-5.28 3.435-6.48 5.678-1.21 2.243-1.53 4.664-1.47 7.059.13 4.795 1.78 9.643 2 13.594.01.101.18.102.19.001.24-3.989-.81-9.133-.41-13.542.2-2.206.75-4.19 1.87-5.799s2.8-2.921 5.56-3.866l-1.35-3.085c-.41.15-.58.112-.67.079-.09-.039-.18-.089-.35-.254-.35-.316-.83-1.12-1.33-1.997-.91-1.642-1.08-3.124-.63-4.554.47-1.428 1.66-3.027 4.23-4.619.63-.392 1.06-.605 1.29-.697a.601.601 0 0 1 .17-.057.888.888 0 0 1-.26.06 2.24 2.24 0 0 1-.47.003c-.23-.038-.56-.04-1.18-.422-.3-.199-.7-.553-.96-1.148-.27-.586-.27-1.351-.09-1.86.39-1.042.89-1.271 1.16-1.469.58-.319.87-.321 1.15-.347.28-.009.51.03.71.093-1.67-.624-2.65-1.454-3.23-2.291-.57-.845-.81-1.742-.76-2.792.08-2.075 1.55-4.804 4.67-6.804a3.031 3.031 0 0 0 1.39-2.553c.01-.998-.5-1.99-1.39-2.562-.15-.097-.29-.194-.43-.29-1.31-.906-2.16-1.637-2.74-2.341-.56-.705-.93-1.408-1.07-2.401-.31-1.941.64-5.093 3.03-8.229.09-.118.18-.235.28-.353.15-.19-.11-.459-.31-.318z"/><path style="fill:#235a8d;fill-opacity:1;fill-rule:nonzero;opacity:1;stroke:none" d="m1076.67 511.385-50.82-13.662-50.825 10.94 24.559 141.914h19.686l57.4-139.192z"/><path style="fill:#d8d8d8;fill-opacity:1;fill-rule:evenodd;opacity:1;stroke:none" d="M1002.49 838.662s-100.394 3.743-99.742 0c15.093-86.727 13.446-202.674 13.446-202.674s-47.309 70.559-71.033 65.772c-36.259-7.316-61.094-135.861-61.094-135.861l37.572-17.375 28.199 70.51s51.884-74.119 75.155-91.479c19.575-14.603 68.805-24.572 68.805-24.572s6.682 13.518 4.624 27.757c-5.209 36.049-2.653 96.469 11.308 114.144 0 0 12.84-66.008 36.79-94.428 29.71-10.265 15.96-50.238 15.96-50.238s65.17 19.651 75.76 33.822c27.63 36.954 56.13 101.296 48.85 126.038-10.71 36.412-80.22 91.084-80.22 91.084l4.18 87.5h-108.56z"/><path style="fill:#7ca2ba;fill-opacity:1;fill-rule:nonzero;opacity:1;stroke:none" d="M1006.82 646.222s6.34 37.48 5.68 50.057c-.47 8.92-10.58 42.591-10.58 42.591s-4.456 41.269-3.818 59.18c.34 9.575 4.458 40.348 4.458 40.348h4.96s-1.13-23.682-2.19-31.746c-2.12-15.976-2-48.613 1.41-64.342 1.91-8.769 7.74-29.879 7.74-29.879s3.69-19.104 1.41-28.368c-1.61-6.546-9.07-37.841-9.07-37.841z"/><path style="fill:#7ca2ba;fill-opacity:1;fill-rule:evenodd;opacity:1;stroke:none" d="M799.023 549.258c10.426-4.626 20.544-4.621 22.599.011 2.056 4.632-4.73 12.138-15.156 16.764-10.425 4.626-20.543 4.621-22.599-.011-2.055-4.632 4.731-12.138 15.156-16.764z"/><path style="fill:#7ca2ba;fill-opacity:1;fill-rule:nonzero;opacity:1;stroke:none" d="M863.885 656.717c-8.399-22.235-13.11-35.509-13.878-36.273a.136.136 0 0 1-.023-.163l8.278-14.597s-2.037 3.452-2.036 3.59c.026 3.992.441 20.905 7.659 47.443zM915.289 637.327c-1.376-15.908 8.37-51.676 8.37-51.676s-32.096 69.469-35.895 87.394c6.77-8.794 18.733-23.374 27.525-35.718zM1105.51 599.495c-1.61 17.274 2.38 34.28 2.36 51.698-.02 13.446-3.92 25.553-3.92 25.553s13.38-14.333 20.21-21.271c-5.77-.67-16.8-4.095-16.8-4.095s10.01-.94 17.88-7.249c-3.09-1.285-17.39-6.01-17.39-6.01s8.96-1.816 12.53-2.624c-7.56-10.493-12.28-21.905-14.87-36.002z"/><path style="fill:#7ca2ba;fill-opacity:1;fill-rule:evenodd;opacity:1;stroke:none" d="M1004.18 690.61c1.74 0 3.16 2.582 3.16 5.766 0 3.185-1.42 5.767-3.16 5.767-1.75 0-3.16-2.582-3.16-5.767 0-3.184 1.41-5.766 3.16-5.766zM1001.12 652.007c1.71-.333 3.59 1.931 4.2 5.058.61 3.126-.29 5.93-2 6.263-1.71.333-3.594-1.932-4.201-5.058-.608-3.126.288-5.93 2.001-6.263zM996.518 731.816c1.673.496 2.296 3.373 1.391 6.426-.905 3.054-2.995 5.127-4.668 4.631-1.673-.496-2.295-3.373-1.39-6.426.905-3.054 2.994-5.127 4.667-4.631zM991.856 772.578c1.745-.007 3.17 2.569 3.183 5.754.013 3.184-1.391 5.772-3.135 5.779-1.745.007-3.17-2.569-3.183-5.753-.014-3.185 1.39-5.772 3.135-5.78zM991.854 814.481c1.744-.061 3.248 2.47 3.359 5.653.111 3.182-1.212 5.812-2.956 5.873-1.744.061-3.248-2.47-3.359-5.653-.111-3.183 1.212-5.812 2.956-5.873z"/><path style="fill:none;opacity:1;stroke:#2c2c2c;stroke-linecap:round;stroke-linejoin:round;stroke-miterlimit:10;stroke-opacity:1;stroke-width:5" d="M1078.61 506.62s15.56-3.041 5.77 91.907M987.287 504.052s-20.832 3.124-27.646 42.509"/><path style="fill:#9e9e9e;fill-opacity:1;fill-rule:evenodd;opacity:1;stroke:none" d="M1080.05 597.028c8.6-1.517 16.8 4.227 18.32 12.829 1.52 8.602-4.23 16.805-12.83 18.322-8.6 1.517-16.8-4.227-18.32-12.829-1.52-8.602 4.23-16.805 12.83-18.322z"/><path style="fill:#000;fill-opacity:1;fill-rule:evenodd;opacity:1;stroke:none" d="M1081.13 604.961c4.08-.719 7.97 2.005 8.68 6.084.72 4.079-2 7.969-6.08 8.688a7.5 7.5 0 0 1-8.69-6.083c-.72-4.08 2.01-7.97 6.09-8.689z"/><path style="fill:none;opacity:1;stroke:#2c2c2c;stroke-linecap:round;stroke-linejoin:round;stroke-miterlimit:10;stroke-opacity:1;stroke-width:5" d="M944.777 583.833s-6.117-35.219 13.441-36.244c20.64-1.082 19.351 37.195 19.351 37.195"/><path style="fill:none;opacity:1;stroke:#505050;stroke-linecap:round;stroke-linejoin:round;stroke-miterlimit:10;stroke-opacity:1;stroke-width:3" d="M942.34 644.347c31.026 17.251 35.503-58 35.503-58"/><path style="fill:none;opacity:1;stroke:#505050;stroke-linecap:round;stroke-linejoin:round;stroke-miterlimit:10;stroke-opacity:1;stroke-width:3" d="M986.666 640.073c-29.053 20.4-41.372-53.971-41.372-53.971"/><path style="fill:#000;fill-opacity:1;fill-rule:evenodd;opacity:1;stroke:none" d="M986.503 635.913c1.564-1.136 3.536-1.088 4.405.108.869 1.196.305 3.086-1.258 4.222-1.564 1.137-3.536 1.088-4.405-.108-.869-1.195-.306-3.086 1.258-4.222zM940.922 640.268c-1.674-.966-3.63-.712-4.37.568-.739 1.28.019 3.101 1.693 4.068 1.674.966 3.631.712 4.37-.568.739-1.28-.019-3.101-1.693-4.068z"/><path style="fill:#7ca2ba;fill-opacity:1;fill-rule:nonzero;opacity:1;stroke:none" d="M1006.71 650.082c-38.136-72.005-49.07-82.342-49.07-82.342l24.591-21.637-24.591-7.89s23.472-40.553 47.18-40.49c-7.022 24.651-6.004 48.04 1.89 152.359z"/><path style="fill:#d8d8d8;fill-opacity:1;fill-rule:nonzero;opacity:1;stroke:none" d="M1006.71 646.082c-38.136-72.005-44.663-83.278-44.663-83.278L984.09 540l-24.45-3.787s26.428-41.297 50.14-41.234c-11.741 19.206-10.964 46.784-3.07 151.103z"/><path style="fill:#a96439;fill-opacity:1;fill-rule:nonzero;opacity:1;stroke:none" d="M1002.2 467.218c6.33 20.542.72 46.913.72 46.913s25.09 30.538 54.95-6.669c1.71-2.122-7.02-56.21-18.12-80.362-4.96-10.818-40.943 29.114-37.55 40.118z"/><path style="fill:#5f2d0d;fill-opacity:1;fill-rule:evenodd;opacity:1;stroke:none" d="m984.09 450.034 56.82-20.289s-19.04 50.503-36.28 50.506c-2.71-25.253-20.54-30.217-20.54-30.217z"/><path style="fill:#aa6439;fill-opacity:1;fill-rule:nonzero;opacity:1;stroke:none" d="M968.277 347.55s-13.056 19.539-14.091 29.954c-.995 10.008.974 29.68-.114 45.419-.435 6.283 13.607 52.011 35.011 53.768 21.717 1.782 41.827-33.501 52.907-48.428 13.79 3.118 17.29-12.205 17.58-19.551.25-6.214-1.84-21.501-7.71-22.779-10.95-2.381-15.07 14.529-15.07 14.529l-15.13-42.822-53.383-10.09z"/><path style="fill:#5f2d0d;fill-opacity:1;fill-rule:evenodd;opacity:1;stroke:none" d="M1054.28 396.407c-12.79-11.219-12.28 13.86-12.28 13.86s-1.81-17.91 5.52-20.868c5.51-2.226 8.97 8.947 6.76 7.008zM981.833 438.333c-11.586 8.511-13.048-4.333-13.048-4.333s-.369 9.492 7.002 9.38c5.55-.084 8.048-6.518 6.046-5.047zM1002.32 447.779c-21.09 20.706-26.78 3.089-26.78 3.089s1.336 14.061 15.909 8.596c10.971-4.115 14.521-15.263 10.871-11.685z"/><path style="fill:#5f2d0d;fill-opacity:1;fill-rule:nonzero;opacity:1;stroke:none" d="M1046.63 402.981s2.92 3.778 2.92 6.367c0 1.339-3 9.04-3 9.04s6.34-7.091 5.92-9.673c-.22-1.316-1.69-4.657-2.92-9.029-2.39-1.549-2.92 3.295-2.92 3.295z"/><path style="fill:#000;fill-opacity:1;fill-rule:evenodd;opacity:1;stroke:none" d="M1007.27 396.968c2.15 0 3.89 2.977 3.89 6.65 0 3.672-1.74 6.649-3.89 6.649-2.14 0-3.88-2.977-3.88-6.649 0-3.673 1.74-6.65 3.88-6.65z"/><path style="fill:#3b1812;fill-opacity:1;fill-rule:evenodd;opacity:1;stroke:none" d="M1000.08 384.039c7.9 1.392 13.34 7.934 13.34 7.934s-8.24-3.883-16.137-5.274c-7.892-1.392-12.3 9.208-12.443.235-.048-3.022 7.353-4.287 15.24-2.895z"/><path style="fill:#3b1811;fill-opacity:1;fill-rule:evenodd;opacity:1;stroke:none" d="M958.2 389.444c-4.457 2.31-5.54 9.064-5.54 9.064s3.79-4.659 8.247-6.969c4.457-2.31 11.004 6.916 7.894-1.397-1.048-2.799-6.144-3.008-10.601-.698z"/><path style="fill:#000;fill-opacity:1;fill-rule:evenodd;opacity:1;stroke:none" d="M963.846 403.413c1.143 0 2.07 2.533 2.07 5.658 0 3.125-.927 5.659-2.07 5.659-1.143 0-2.07-2.534-2.07-5.659s.927-5.658 2.07-5.658z"/><path style="fill:#5f2d0d;fill-opacity:1;fill-rule:evenodd;opacity:1;stroke:none" d="M976.049 399.131c5.561-.817 17.001-5.407 23.55-6.52 7.611-1.294 33.751-2.426 33.751-2.426l.04 5.149s-7.93 1.482-9.6 3.129c0 7.903-3.17 16.652-7.73 20.08-5.84 4.414-19.271 5.233-25.015 2.898-10.114-3.958-9.78-16.66-13.977-16.05a.399.399 0 0 1-.076.005.454.454 0 0 1-.075.016c-4.202.576-1.2 12.846-7.64 18.765-3.646 3.373-14.009 5.289-17.308 2.288-2.569-2.285-5.03-9.594-6.474-16.699-.815-1.146-3.533-.877-3.533-.877l-.918-4.577s9.63-4.537 14.526-5.136c4.215-.513 14.918.773 20.479-.045zm-6.065 4.68c-5.257-4.285-21.039-2.549-22.533 2.643-.984 3.477 2.496 14.661 4.951 17.706 2.433 3.077 11.723 1.696 14.542-1.229 3.046-3.141 6.726-16.03 3.04-19.12zm13.947-2.039c4.238-5.788 25.059-9.332 32.339-5.296 4.83 2.765 1.64 15.806-2.3 19.952-3.88 4.126-15.872 5.256-20.423 3.141-4.904-2.225-12.569-13.711-9.616-17.797z"/><path style="fill:#4b8dce;fill-opacity:1;fill-rule:evenodd;opacity:1;stroke:none" d="M974.049 397.131c5.561-.817 17.001-5.407 23.55-6.52 7.611-1.294 33.751-2.426 33.751-2.426l.04 5.149s-7.93 1.482-9.6 3.129c0 7.903-3.17 16.652-7.73 20.08-5.84 4.414-19.271 5.233-25.015 2.898-10.114-3.958-9.78-16.66-13.977-16.05a.399.399 0 0 1-.076.005.454.454 0 0 1-.075.016c-4.202.576-1.2 12.846-7.64 18.765-3.646 3.373-14.009 5.289-17.308 2.288-2.569-2.285-5.03-9.594-6.474-16.699-.815-1.146-3.533-.877-3.533-.877l-.918-4.577s9.63-4.537 14.526-5.136c4.215-.513 14.918.773 20.479-.045zm-6.065 4.68c-5.257-4.285-21.039-2.549-22.533 2.643-.984 3.477 2.496 14.661 4.951 17.706 2.433 3.077 11.723 1.696 14.542-1.229 3.046-3.141 6.726-16.03 3.04-19.12zm13.947-2.039c4.238-5.788 25.059-9.332 32.339-5.296 4.83 2.765 1.64 15.806-2.3 19.952-3.88 4.126-15.872 5.256-20.423 3.141-4.904-2.225-12.569-13.711-9.616-17.797z"/><linearGradient x1="968.639" y1="382.797" x2="1045.91" y2="368.953" gradientUnits="userSpaceOnUse" id="b"><stop style="stop-color:#2a0808;stop-opacity:1"/><stop offset="1" style="stop-color:#311710;stop-opacity:1"/></linearGradient><path style="fill:url(#b);fill-opacity:1;fill-rule:nonzero;opacity:1;stroke:none" d="M968.236 348.342c4.125 11.626 30.061 4.799 38.474 18.826 21.79 36.348 31.42 44.985 31.42 44.985s-2.45-37.548 7.41-51.268c12.29-17.08-83.851-30.995-77.304-12.543z"/><path style="fill:#532b21;fill-opacity:1;fill-rule:nonzero;opacity:1;stroke:none" d="M970.147 327.174c.001.155.004.309.006.462.071 4.042.717 7.715 3.236 10.473 2.482 2.76 6.945 4.008 11.85 2.612.312-.088.626-.185.944-.29l-3.988-3.128c-.441 5.555 1.878 10.545 5.899 13.217 4.002 2.725 9.648 2.768 14.526-.49.31-.2.6-.445.85-.76.24-.338.49-.652.61-1.454.03-.398.13-1.089-.59-2.045-.35-.454-.97-.827-1.54-.928a2.661 2.661 0 0 0-1.34.072c-.637.219-.883.468-1.09.653a2.96 2.96 0 0 0-.411.497c-.365.575-.502 1.043-.643 1.669-.128.618-.212 1.364-.24 2.335-.13 4.009 1.015 7.335 3.194 9.553 2.17 2.226 5.13 3.195 8.18 3.247 1.1.003 2.52.103 4.01-.276.74-.196 1.52-.543 2.18-1.168.66-.619 1.12-1.495 1.3-2.459.18-.946-.42-1.848-1.27-2.016-.84-.21-1.76.352-1.97 1.155-.91 3.511-.55 6.51.69 8.877 1.24 2.374 3.24 4.094 5.49 5.493 4.52 2.783 10.17 4.371 13.99 6.582.09.051.19-.093.1-.153-3.58-2.628-9.14-4.903-13.04-7.938-1.96-1.511-3.46-3.189-4.2-5.07-.73-1.887-.81-3.999.19-6.821-1.09-.287-2.17-.574-3.25-.861-.13.398-.26.504-.39.591-.12.08-.31.16-.65.213-.67.118-1.81.004-2.96-.119-2.3-.247-3.99-1.095-5.04-2.37-1.04-1.284-1.67-3.143-1.41-6.171.07-.746.17-1.215.23-1.441.02-.057.03-.098.04-.123.01-.026.02-.022.02-.028-.01.014-.03.09-.14.266-.06.089-.14.204-.3.364-.18.154-.4.385-1.01.598-.31.095-.76.18-1.32.069a2.687 2.687 0 0 1-1.516-.916c-.704-.943-.597-1.613-.579-1.983.122-.745.331-.975.499-1.219.174-.221.347-.361.503-.461-3.646 2.022-6.348 1.571-8.385.175-2.016-1.45-3.426-4.208-3.147-7.883a3.05 3.05 0 0 0-1.158-2.634 3.05 3.05 0 0 0-2.83-.494c-.244.08-.482.153-.714.22-3.664 1.059-5.591 1.155-7.654.177-2.026-.982-4.083-3.636-5.204-7.492-.042-.144-.083-.29-.122-.437-.064-.234-.437-.184-.436.058z"/><path style="fill:#7ca2ba;fill-opacity:1;fill-rule:nonzero;opacity:1;stroke:none" d="M1006.71 651.082c38.14-72.071 74.96-83.691 74.96-83.691l-11.89-19.079 26.95-15.205s-13.07-30.407-36.78-30.343c11.59 36.018-45.34 43.902-53.24 148.318z"/><path style="fill:#d8d8d8;fill-opacity:1;fill-rule:nonzero;opacity:1;stroke:none" d="M1006.82 646.222c38.14-72.072 69.85-82.831 69.85-82.831l-11.89-19.079 26.95-15.205s-11.03-34.191-34.74-34.128c11.59 36.018-42.27 46.827-50.17 151.243z"/><path style="fill:#aa6439;fill-opacity:1;fill-rule:nonzero;opacity:1;stroke:none" d="M793.197 569.444c16.488-.89 25.288-11.432 25.288-11.432l-6.457-10.748s-3.488-10.182-6.117-12.44c-7.716-6.626-30.479-5.823-40.41-8.306-13.727-3.433-31.872-14.712-46.388-32.714-1.502-1.863-5.101-2.177-5.559 3.067-.41 4.707 22.457 33.579 34.005 41.057 7.256 4.699 32.872 10.733 32.872 10.733s9.388 15.358 12.766 20.783z"/><path style="fill:#7e431f;fill-opacity:1;fill-rule:nonzero;opacity:1;stroke:none" d="M774.218 527.471c-12.921-5.77-32.309-15.138-43.469-35.392-1.155-2.097-3.763-4.655-5.127.428-1.224 4.564 16.673 31.922 26.743 41.296 6.327 5.89 31.199-2.158 21.853-6.332z"/><path style="fill:#aa6439;fill-opacity:1;fill-rule:nonzero;opacity:1;stroke:none" d="M776.102 526.267c-12.92-5.77-32.308-15.138-43.468-35.392-1.155-2.096-4.654-3.556-6.017 1.528-1.224 4.564 19.761 32.603 29.83 41.976 6.328 5.891 29.002-3.937 19.655-8.112z"/><path style="fill:#7e431f;fill-opacity:1;fill-rule:nonzero;opacity:1;stroke:none" d="M788.806 530.484c-12.99-3.542-16.245-.453-26.373-22.691-1.048-2.301-2.768-8.288-6.321 1.098-1.84 4.86 4.281 21.485 16.096 28.599 7.31 4.402 40.015-.622 16.598-7.006z"/><path style="fill:#aa6439;fill-opacity:1;fill-rule:nonzero;opacity:1;stroke:none" d="M790.586 528.285c-12.955-3.667-18.132.732-28.259-21.505-1.049-2.302-4.099-5.615-5.43.018-1.194 5.057 6.063 20.461 15.311 30.692 5.811 6.43 59.879 2.546 18.378-9.205z"/></svg>